HIERARCHY
ROOT hip
{
	OFFSET 0.000000 0.000000 0.000000 
	CHANNELS 6 Xposition Yposition Zposition Xrotation Zrotation Yrotation
	JOINT abdomen
	{
		OFFSET 0.000000 3.402643 0.000000 
		CHANNELS 3 Xrotation Zrotation Yrotation
		JOINT chest
		{
			OFFSET 0.000000 8.438565 -0.680529 
			CHANNELS 3 Xrotation Zrotation Yrotation
			JOINT neck
			{
				OFFSET 0.000000 10.207942 -0.272212 
				CHANNELS 3 Xrotation Zrotation Yrotation
				JOINT head
				{
					OFFSET 0.000000 3.130431 0.000000 
					CHANNELS 3 Xrotation Zrotation Yrotation
					End Site
					{
						OFFSET 0.000000 3.130435 0.000000 
					}
				}
			}
			JOINT lCollar
			{
				OFFSET 3.470700 6.669187 -0.816635 
				CHANNELS 3 Yrotation Zrotation Xrotation
				JOINT lShldr
				{
					OFFSET 3.198488 0.000000 0.000000 
					CHANNELS 3 Zrotation Yrotation Xrotation
					JOINT lForeArm
					{
						OFFSET 10.139888 0.000000 0.000000 
						CHANNELS 3 Yrotation Zrotation Xrotation
						JOINT lHand
						{
							OFFSET 8.370511 0.000000 0.000000 
							CHANNELS 3 Zrotation Yrotation Xrotation
							End Site
							{
								OFFSET 4.083176 0.000000 0.000000 
							}
						}
					}
				}
			}
			JOINT rCollar
			{
				OFFSET -3.470700 6.669187 -0.816635 
				CHANNELS 3 Yrotation Zrotation Xrotation
				JOINT rShldr
				{
					OFFSET -3.198488 0.000000 0.000000 
					CHANNELS 3 Zrotation Yrotation Xrotation
					JOINT rForeArm
					{
						OFFSET -10.139888 0.000000 0.000000 
						CHANNELS 3 Yrotation Zrotation Xrotation
						JOINT rHand
						{
							OFFSET -8.370511 0.000000 0.000000 
							CHANNELS 3 Zrotation Yrotation Xrotation
							End Site
							{
								OFFSET -4.083176 0.000000 0.000000 
							}
						}
					}
				}
			}
		}
	}
	JOINT lThigh
	{
		OFFSET 5.308129 -1.633274 1.361059 
		CHANNELS 3 Xrotation Zrotation Yrotation
		JOINT lShin
		{
			OFFSET -2.041588 -20.007561 0.000000 
			CHANNELS 3 Xrotation Zrotation Yrotation
			JOINT lFoot
			{
				OFFSET 0.000000 -19.190928 -1.224953 
				CHANNELS 3 Xrotation Yrotation Zrotation
				End Site
				{
					OFFSET 0.000000 -2.449906 4.627600 
				}
			}
		}
	}
	JOINT rThigh
	{
		OFFSET -5.308129 -1.633274 1.361059 
		CHANNELS 3 Xrotation Zrotation Yrotation
		JOINT rShin
		{
			OFFSET 2.041588 -20.007561 0.000000 
			CHANNELS 3 Xrotation Zrotation Yrotation
			JOINT rFoot
			{
				OFFSET 0.000000 -19.190928 -1.224953 
				CHANNELS 3 Xrotation Yrotation Zrotation
				End Site
				{
					OFFSET 0.000000 -2.449906 4.627600 
				}
			}
		}
	}
}
MOTION
Frames: 13
Frame Time: 0.016667
0.043608 46.564224 -1.697888 -7.380926 0.279286 -9.541091 32.785294 -3.817495 -4.277597 -15.558736 3.685596 -3.219422 5.258673 5.070198 9.255722 0.612942 -5.760315 8.902510 -6.192376 -5.702072 -0.009661 -61.891697 3.234175 18.233967 -126.827759 3.069616 39.217770 7.626832 20.554722 2.691784 17.675781 1.611328 -0.000275 57.173843 -14.498555 0.064895 126.479439 -2.519060 31.360523 6.911644 20.895533 2.476491 -5.815193 -0.752263 5.841366 49.995766 -0.130627 -3.518832 -33.807766 -5.169460 -16.147949 -22.966391 -8.378229 -2.347354 52.708538 -0.048763 3.552365 -18.805883 6.262273 14.480892 
0.154260 46.550602 -0.850628 -7.296770 0.173000 -10.205120 32.872784 -3.894388 -4.473789 -16.081417 4.084671 -3.387008 5.376538 4.373518 9.461726 0.739227 -5.382309 9.014406 -5.957991 -5.643517 -0.009666 -62.766289 4.203125 18.816299 -126.623222 3.025567 38.527321 7.605740 19.915426 2.604867 17.353516 1.074219 -0.000183 57.636257 -15.173871 0.924106 127.115723 -2.434777 30.300352 6.418347 19.602663 2.163847 -4.356044 -0.801269 7.050806 49.655319 -0.149928 -3.482415 -34.367672 -5.501198 -16.460882 -23.801407 -7.527265 -2.857577 49.364384 0.153757 3.422083 -17.871271 7.959846 14.963428 
0.192559 46.518005 0.106495 -7.419034 -0.220666 -10.752061 32.765816 -3.650991 -4.472471 -15.908842 4.318106 -3.506011 5.365571 3.784398 9.591787 1.362268 -5.121200 9.059467 -6.026402 -5.946240 -0.009659 -63.007042 4.957332 18.970016 -126.136452 3.042956 38.721127 7.659418 18.856064 2.490880 17.070454 0.876040 -0.009484 57.768299 -15.593153 1.415142 127.816269 -2.364332 29.319090 5.693980 18.138647 1.780771 -2.607840 -0.421559 8.376162 49.539280 -0.176895 -3.459774 -35.095169 -6.086143 -16.997654 -24.083447 -6.520884 -4.367280 46.223789 0.322241 3.296845 -15.384200 10.250420 15.159207 
0.230856 46.485413 1.063560 -7.541856 -0.622505 -11.280002 32.650440 -3.417284 -4.480986 -15.728093 4.561208 -3.624344 5.342155 3.195720 9.722821 1.984172 -4.869797 9.104733 -6.094815 -6.258729 -0.009653 -63.253822 5.707318 19.111237 -125.654938 3.059325 38.916351 7.704792 17.797441 2.368028 16.777456 0.690540 -0.009467 57.899658 -16.010811 1.914840 128.520554 -2.286411 28.333704 4.982718 16.679321 1.426204 -0.847479 -0.089016 9.722750 49.392891 -0.196825 -3.461503 -35.819939 -6.667645 -17.544607 -24.381155 -5.516819 -5.860327 43.091793 0.498035 3.176998 -12.886669 12.513910 15.226022 
0.310861 46.457397 2.043567 -7.744564 -0.725646 -12.120131 32.509300 -3.222481 -4.499343 -15.438615 3.937201 -3.679960 5.142926 2.991644 9.935740 2.685278 -4.375974 9.265508 -6.124085 -6.102474 -0.009655 -63.100834 6.259894 18.666096 -125.446205 3.031872 38.408623 7.451143 17.622992 2.267479 16.650536 0.885874 -0.009506 58.247711 -16.056717 2.712069 128.983490 -2.248934 27.925226 3.722608 14.959435 0.973681 0.683353 -0.234905 11.061825 49.577946 -0.186057 -3.475191 -35.180935 -7.034413 -17.692837 -24.488056 -4.715727 -7.416239 40.447815 0.615195 3.043064 -10.535214 13.843535 14.915791 
0.390864 46.429382 3.023543 -7.944366 -0.828001 -12.950665 32.367523 -3.027730 -4.508551 -15.158314 3.323015 -3.736641 4.934142 2.797403 10.149295 3.379383 -3.882571 9.425497 -6.153355 -5.946218 -0.009657 -62.957706 6.816606 18.222113 -125.240715 2.997533 37.909443 7.184781 17.449619 2.156251 16.513672 1.083984 0.000000 58.601398 -16.114285 3.509092 129.443390 -2.226078 27.516064 2.487949 13.230145 0.570262 2.232584 -0.400260 12.386628 49.743813 -0.191731 -3.485588 -34.554298 -7.400954 -17.837187 -24.614862 -3.924599 -8.980281 37.802921 0.751782 2.911396 -8.153219 15.130143 14.520940 
0.492760 46.395885 4.039657 -8.032257 -0.692112 -13.868279 31.977737 -2.940269 -4.469026 -14.606269 2.660422 -3.714638 4.323462 2.623244 10.284455 3.717783 -3.332304 9.537591 -5.821266 -5.604478 -0.009669 -62.914417 6.640745 18.355717 -124.706619 2.938047 37.078812 6.642208 17.458652 1.994028 16.289257 1.188667 -0.009574 59.044487 -15.845220 3.722379 129.897064 -2.148036 26.616470 1.555537 11.304279 0.315932 2.894364 -0.370816 14.181879 51.235332 -0.094144 -3.550581 -31.952417 -8.838665 -18.126879 -24.585712 -3.456183 -10.789841 36.066071 0.865000 2.793114 -7.219727 14.167974 14.135306 
0.594650 46.362377 5.055770 -8.127029 -0.547676 -14.776102 31.588829 -2.862533 -4.429514 -14.055065 1.997776 -3.703345 3.702614 2.449142 10.429912 4.056695 -2.792020 9.649955 -5.489178 -5.272503 -0.009680 -62.862041 6.461492 18.490129 -124.179657 2.875825 36.247192 6.099586 17.466192 1.828887 16.064667 1.296126 -0.009603 59.485806 -15.588447 3.947134 130.343201 -2.080926 25.712555 0.641730 9.364764 0.095246 3.580397 -0.370974 15.984430 52.737556 -0.016214 -3.594051 -29.351431 -10.279753 -18.377611 -24.563301 -2.996064 -12.615548 34.338539 0.952577 2.674700 -6.295326 13.220731 13.774957 
0.618977 46.266457 6.074108 -8.605308 -0.358498 -14.971015 31.643652 -2.803281 -4.644571 -13.761477 1.597841 -3.907725 3.477432 2.142272 10.359216 3.805248 -2.061159 9.508041 -5.616109 -5.145529 -0.009680 -62.638763 6.519183 18.482267 -123.648102 2.888711 36.449432 5.594639 18.025675 1.727221 15.967080 1.716064 -0.009677 59.537884 -15.438980 3.669010 130.541565 -1.982521 24.504862 -0.491070 7.353331 -0.052810 3.012993 0.613411 17.729881 56.813194 0.242355 -3.711166 -23.543184 -13.555840 -18.206404 -24.096712 -2.977014 -13.556946 34.884769 0.908154 2.727888 -8.536451 10.468760 13.855702 
0.643305 46.170532 7.092440 -9.077662 -0.160234 -15.166090 31.688259 -2.744024 -4.859159 -13.455475 1.198066 -4.121825 3.243553 1.835207 10.298578 3.550192 -1.329690 9.367676 -5.743039 -5.008788 -0.009679 -62.406475 6.565252 18.471739 -123.104462 2.898303 36.649235 5.076712 18.584984 1.612983 15.859727 2.145769 -0.009753 59.580097 -15.283921 3.399593 130.738174 -1.889459 23.293398 -1.619238 5.329641 -0.159436 2.477870 1.619147 19.475988 60.876560 0.505190 -3.857100 -17.647869 -16.803286 -17.711874 -23.641825 -2.949005 -14.500475 35.431305 0.878848 2.765790 -10.718005 7.731147 13.777027 
0.672776 45.975632 8.078876 -9.778236 -0.131834 -15.361374 32.285015 -2.675320 -5.005476 -14.015365 1.334197 -4.258930 3.588419 1.431966 10.227972 3.758097 -1.387929 9.260512 -6.065304 -5.008734 -0.009674 -62.567997 6.880798 18.674704 -122.180229 2.917371 36.725796 5.014918 18.586622 1.594308 15.898747 1.882091 -0.009708 59.989620 -15.703845 3.100091 130.636719 -1.732114 21.376842 -2.973449 3.413883 -0.167181 0.458710 3.339537 20.387241 66.577019 0.894966 -3.995363 -9.303997 -19.808247 -15.411996 -23.738615 -3.134405 -12.622488 38.769516 0.703000 2.952364 -13.179764 5.854195 13.648734 
0.702251 45.780727 9.065306 -10.469221 -0.103482 -15.566433 32.880970 -2.606670 -5.142493 -14.586420 1.480010 -4.395837 3.932725 1.018903 10.167692 3.966220 -1.446199 9.153118 -6.387571 -5.018445 -0.009668 -62.718845 7.203125 18.880470 -121.253807 2.917262 36.802021 4.953124 18.588240 1.575631 15.937768 1.628178 -0.009664 60.399807 -16.119160 2.813833 130.540283 -1.583159 19.469240 -4.327891 1.489146 -0.122431 -1.543015 5.044013 21.235237 72.257011 1.293877 -4.105808 -0.653190 -22.464077 -12.621265 -23.820936 -3.308478 -10.753448 42.097244 0.527327 3.110871 -15.657969 4.021984 13.461328 
0.757855 45.513264 9.990782 -10.894370 -0.684443 -16.241491 33.330902 -2.189351 -4.867184 -14.675119 1.918443 -4.289279 3.429675 0.788686 9.971765 4.054857 -1.533762 8.967878 -6.504776 -5.116082 -0.009664 -63.152454 6.579475 19.096306 -119.695198 2.858451 35.612114 5.104105 19.148878 1.670065 16.035419 1.608631 -0.009656 59.070324 -15.369887 3.275709 129.293091 -1.497849 18.457539 -7.148923 -0.421486 0.092228 -4.598230 7.103331 21.053808 77.703400 1.681168 -4.172947 2.469546 -21.226303 -11.516664 -23.930494 -3.006508 -9.078550 45.092354 0.371105 3.243337 -16.947401 3.763660 13.472424 
